custom-analysis
version=1
nRows=5
nColumns=129
inDegrees=no

This file contains tibia displacement and acting force.

Units are S.I. units (seconds, meters, Newtons, ...)
Angles are in degrees.

endheader
time	displacement	knee_angle	aACL_R_force	pACL_R_force	aPCL_R_force	pPCL_R_force	aMCL_R_force	aLCL_R_force	aPCL_L_force	pPCL_L_force	aMCL_L_force	aLCL_L_force	aACL_R_length	pACL_R_length	aPCL_R_length	pPCL_R_length	aMCL_R_length	aLCL_R_length	aPCL_L_length	pPCL_L_length	aMCL_L_length	aLCL_L_length	aACL_R_strain	pACL_R_strain	aPCL_R_strain	pPCL_R_strain	aMCL_R_strain	aLCL_R_strain	aPCL_L_strain	pPCL_L_strain	aMCL_L_strain	aLCL_L_strain	femur_lat_meniscii_l.femur_lat_l.force.X	femur_lat_meniscii_l.femur_lat_l.force.Y	femur_lat_meniscii_l.femur_lat_l.force.Z	femur_lat_meniscii_l.femur_lat_l.torque.X	femur_lat_meniscii_l.femur_lat_l.torque.Y	femur_lat_meniscii_l.femur_lat_l.torque.Z	femur_lat_meniscii_l.meniscus_lat_l.force.X	femur_lat_meniscii_l.meniscus_lat_l.force.Y	femur_lat_meniscii_l.meniscus_lat_l.force.Z	femur_lat_meniscii_l.meniscus_lat_l.torque.X	femur_lat_meniscii_l.meniscus_lat_l.torque.Y	femur_lat_meniscii_l.meniscus_lat_l.torque.Z	femur_med_meniscii_l.femur_med_l.force.X	femur_med_meniscii_l.femur_med_l.force.Y	femur_med_meniscii_l.femur_med_l.force.Z	femur_med_meniscii_l.femur_med_l.torque.X	femur_med_meniscii_l.femur_med_l.torque.Y	femur_med_meniscii_l.femur_med_l.torque.Z	femur_med_meniscii_l.meniscus_med_l.force.X	femur_med_meniscii_l.meniscus_med_l.force.Y	femur_med_meniscii_l.meniscus_med_l.force.Z	femur_med_meniscii_l.meniscus_med_l.torque.X	femur_med_meniscii_l.meniscus_med_l.torque.Y	femur_med_meniscii_l.meniscus_med_l.torque.Z	femur_lat_meniscii_r.femur_lat_r.force.X	femur_lat_meniscii_r.femur_lat_r.force.Y	femur_lat_meniscii_r.femur_lat_r.force.Z	femur_lat_meniscii_r.femur_lat_r.torque.X	femur_lat_meniscii_r.femur_lat_r.torque.Y	femur_lat_meniscii_r.femur_lat_r.torque.Z	femur_lat_meniscii_r.meniscus_lat_r.force.X	femur_lat_meniscii_r.meniscus_lat_r.force.Y	femur_lat_meniscii_r.meniscus_lat_r.force.Z	femur_lat_meniscii_r.meniscus_lat_r.torque.X	femur_lat_meniscii_r.meniscus_lat_r.torque.Y	femur_lat_meniscii_r.meniscus_lat_r.torque.Z	femur_med_meniscii_r.femur_med_r.force.X	femur_med_meniscii_r.femur_med_r.force.Y	femur_med_meniscii_r.femur_med_r.force.Z	femur_med_meniscii_r.femur_med_r.torque.X	femur_med_meniscii_r.femur_med_r.torque.Y	femur_med_meniscii_r.femur_med_r.torque.Z	femur_med_meniscii_r.meniscus_med_r.force.X	femur_med_meniscii_r.meniscus_med_r.force.Y	femur_med_meniscii_r.meniscus_med_r.force.Z	femur_med_meniscii_r.meniscus_med_r.torque.X	femur_med_meniscii_r.meniscus_med_r.torque.Y	femur_med_meniscii_r.meniscus_med_r.torque.Z	femur_med_tibia_l.tibia_upper_l.force.X	femur_med_tibia_l.tibia_upper_l.force.Y	femur_med_tibia_l.tibia_upper_l.force.Z	femur_med_tibia_l.tibia_upper_l.torque.X	femur_med_tibia_l.tibia_upper_l.torque.Y	femur_med_tibia_l.tibia_upper_l.torque.Z	femur_med_tibia_l.femur_med_l.force.X	femur_med_tibia_l.femur_med_l.force.Y	femur_med_tibia_l.femur_med_l.force.Z	femur_med_tibia_l.femur_med_l.torque.X	femur_med_tibia_l.femur_med_l.torque.Y	femur_med_tibia_l.femur_med_l.torque.Z	femur_lat_tibia_l.tibia_upper_l.force.X	femur_lat_tibia_l.tibia_upper_l.force.Y	femur_lat_tibia_l.tibia_upper_l.force.Z	femur_lat_tibia_l.tibia_upper_l.torque.X	femur_lat_tibia_l.tibia_upper_l.torque.Y	femur_lat_tibia_l.tibia_upper_l.torque.Z	femur_lat_tibia_l.femur_lat_l.force.X	femur_lat_tibia_l.femur_lat_l.force.Y	femur_lat_tibia_l.femur_lat_l.force.Z	femur_lat_tibia_l.femur_lat_l.torque.X	femur_lat_tibia_l.femur_lat_l.torque.Y	femur_lat_tibia_l.femur_lat_l.torque.Z	femur_med_tibia_r.tibia_upper_r.force.X	femur_med_tibia_r.tibia_upper_r.force.Y	femur_med_tibia_r.tibia_upper_r.force.Z	femur_med_tibia_r.tibia_upper_r.torque.X	femur_med_tibia_r.tibia_upper_r.torque.Y	femur_med_tibia_r.tibia_upper_r.torque.Z	femur_med_tibia_r.femur_med_r.force.X	femur_med_tibia_r.femur_med_r.force.Y	femur_med_tibia_r.femur_med_r.force.Z	femur_med_tibia_r.femur_med_r.torque.X	femur_med_tibia_r.femur_med_r.torque.Y	femur_med_tibia_r.femur_med_r.torque.Z	femur_lat_tibia_r.tibia_upper_r.force.X	femur_lat_tibia_r.tibia_upper_r.force.Y	femur_lat_tibia_r.tibia_upper_r.force.Z	femur_lat_tibia_r.tibia_upper_r.torque.X	femur_lat_tibia_r.tibia_upper_r.torque.Y	femur_lat_tibia_r.tibia_upper_r.torque.Z	femur_lat_tibia_r.femur_lat_r.force.X	femur_lat_tibia_r.femur_lat_r.force.Y	femur_lat_tibia_r.femur_lat_r.force.Z	femur_lat_tibia_r.femur_lat_r.torque.X	femur_lat_tibia_r.femur_lat_r.torque.Y	femur_lat_tibia_r.femur_lat_r.torque.Z
      0.08653819	      0.01217541	     22.08139489	      6.66662087	      0.00000000	     13.70563808	      0.00000000	      0.00000000	      0.00000000	      0.00000000	      0.00000000	      0.00000001	      0.00000000	      0.03317445	      0.02548797	      0.02732168	      0.02504321	      0.06236285	      0.05353754	      0.01525851	      0.01651186	      0.06550154	      0.04489616	      0.00511899	     -0.04031557	      0.00002249	     -0.05053074	     -0.03615564	     -0.06832744	      0.00000079	     -0.32847694	      0.00000060	     -0.00000086	      2.76307435	     50.99597937	     -9.56042239	      5.21997485	     -0.02578839	      1.48581788	     -2.76307435	    -50.99597937	      9.56042239	     -1.74637766	      0.02558040	     -0.48301696	     -3.31599387	     20.97615968	     -3.40468921	      0.94473225	     -0.02138609	     -1.00501789	      3.31599387	    -20.97615968	      3.40468921	      0.28075727	      0.00368718	     -0.29758878	     15.26002061	    179.55218336	      9.52715048	     -8.27216161	      0.40662741	      5.40495069	    -15.26002061	   -179.55218336	     -9.52715048	      5.33938407	     -0.57702111	      2.50389947	     29.35079511	    185.53151237	      0.99120483	      3.35676291	     -0.57141891	     11.50211788	    -29.35079511	   -185.53151237	     -0.99120483	     -2.98449729	      0.44097659	      1.89054182	      0.00000000	      0.00000000	      0.00000000	      0.00000000	      0.00000000	      0.00000000	      0.00000000	      0.00000000	      0.00000000	      0.00000000	      0.00000000	      0.00000000	      0.00000000	      0.00000000	      0.00000000	      0.00000000	      0.00000000	      0.00000000	      0.00000000	      0.00000000	      0.00000000	      0.00000000	      0.00000000	      0.00000000	    -82.61005033	   -697.92424770	     22.76441267	    -11.81904792	      1.56044328	      5.41437270	     82.61005033	    697.92424770	    -22.76441267	     23.40196599	     -1.63671928	     34.28050500	     43.41997887	   -313.46531216	    -74.39410342	     11.02239530	      0.27099747	      5.32524950	    -43.41997887	    313.46531216	     74.39410342	    -38.34294385	     -0.94148818	    -18.44567192
      0.08745590	      0.01237419	     22.47962200	      4.14444742	      0.00000000	     14.04555126	      0.00000000	      0.00000000	      0.00000000	      0.00000000	      0.00000000	      0.00000001	      0.00000000	      0.03318833	      0.02547854	      0.02735636	      0.02505348	      0.06233343	      0.05348845	      0.01525851	      0.01651186	      0.06550154	      0.04489616	      0.00553929	     -0.04067083	      0.00129183	     -0.05014154	     -0.03661031	     -0.06918168	      0.00000079	     -0.32847694	      0.00000060	     -0.00000086	      2.76307435	     50.99597937	     -9.56042239	      5.21997485	     -0.02578839	      1.48581788	     -2.76307435	    -50.99597937	      9.56042239	     -1.74637766	      0.02558040	     -0.48301696	     -3.31599387	     20.97615968	     -3.40468921	      0.94473225	     -0.02138609	     -1.00501789	      3.31599387	    -20.97615968	      3.40468921	      0.28075727	      0.00368718	     -0.29758878	      8.51826628	    186.71984311	     10.89700906	     -9.01299329	      0.25170649	      2.51694188	     -8.51826628	   -186.71984311	    -10.89700906	      5.58011395	     -0.41243014	      2.92055707	     24.24178446	    195.75026061	      2.16517571	      3.06587380	     -0.46411023	      9.29570375	    -24.24178446	   -195.75026061	     -2.16517571	     -3.10564041	      0.34088001	      2.29058993	      0.00000000	      0.00000000	      0.00000000	      0.00000000	      0.00000000	      0.00000000	      0.00000000	      0.00000000	      0.00000000	      0.00000000	      0.00000000	      0.00000000	      0.00000000	      0.00000000	      0.00000000	      0.00000000	      0.00000000	      0.00000000	      0.00000000	      0.00000000	      0.00000000	      0.00000000	      0.00000000	      0.00000000	    -64.30025548	   -687.05256166	     19.79312852	    -11.53778348	      1.24387509	      6.22014590	     64.30025548	    687.05256166	    -19.79312852	     21.92801484	     -1.27491580	     26.45624143	     50.29583309	   -308.22085094	    -71.91263599	     10.78945399	      0.45523150	      5.62644339	    -50.29583309	    308.22085094	     71.91263599	    -37.18505921	     -1.08466561	    -21.38979598
      0.08837360	      0.01257200	     22.88049325	      5.02792072	      0.00000000	     14.06605920	      0.00000000	      0.00000000	      0.00000000	      0.00000000	      0.00000000	      0.00000001	      0.00000000	      0.03320033	      0.02546719	      0.02739183	      0.02506436	      0.06230138	      0.05344016	      0.01525851	      0.01651186	      0.06550154	      0.04489616	      0.00590286	     -0.04109788	      0.00259007	     -0.04972894	     -0.03710570	     -0.07002197	      0.00000079	     -0.32847694	      0.00000060	     -0.00000086	      2.76307435	     50.99597937	     -9.56042239	      5.21997485	     -0.02578839	      1.48581788	     -2.76307435	    -50.99597937	      9.56042239	     -1.74637766	      0.02558040	     -0.48301696	     -3.31599387	     20.97615968	     -3.40468921	      0.94473225	     -0.02138609	     -1.00501789	      3.31599387	    -20.97615968	      3.40468921	      0.28075727	      0.00368718	     -0.29758878	     11.12522176	    186.04694774	     10.24031667	     -8.71331078	      0.30599766	      3.60099338	    -11.12522176	   -186.04694774	    -10.24031667	      5.52716799	     -0.47158121	      2.86881235	     27.34651928	    195.52852096	      0.61704077	      3.70070674	     -0.52663475	     10.58214735	    -27.34651928	   -195.52852096	     -0.61704077	     -3.14880982	      0.40899620	      2.23585511	      0.00000000	      0.00000000	      0.00000000	      0.00000000	      0.00000000	      0.00000000	      0.00000000	      0.00000000	      0.00000000	      0.00000000	      0.00000000	      0.00000000	      0.00000000	      0.00000000	      0.00000000	      0.00000000	      0.00000000	      0.00000000	      0.00000000	      0.00000000	      0.00000000	      0.00000000	      0.00000000	      0.00000000	    -69.84134913	   -662.49955215	     22.90308280	    -11.28250028	      1.37964233	      5.90900582	     69.84134913	    662.49955215	    -22.90308280	     22.76159332	     -1.39159551	     28.74992548	     44.61448240	   -297.03328256	    -68.05306550	     10.34525596	      0.33345181	      5.36088545	    -44.61448240	    297.03328256	     68.05306550	    -35.31021611	     -0.95541035	    -19.01282574
      0.08929131	      0.01276998	     23.28446875	      6.01137393	      0.00000000	     14.18743920	      0.00000000	      0.00000000	      0.00000000	      0.00000000	      0.00000000	      0.00000001	      0.00000000	      0.03321197	      0.02545547	      0.02742802	      0.02507575	      0.06226766	      0.05339289	      0.01525851	      0.01651186	      0.06550154	      0.04489616	      0.00625561	     -0.04153930	      0.00391448	     -0.04929717	     -0.03762681	     -0.07084471	      0.00000079	     -0.32847694	      0.00000060	     -0.00000086	      2.76307435	     50.99597937	     -9.56042239	      5.21997485	     -0.02578839	      1.48581788	     -2.76307435	    -50.99597937	      9.56042239	     -1.74637766	      0.02558040	     -0.48301696	     -3.31599387	     20.97615968	     -3.40468921	      0.94473225	     -0.02138609	     -1.00501789	      3.31599387	    -20.97615968	      3.40468921	      0.28075727	      0.00368718	     -0.29758878	     14.26279746	    184.57015494	     11.24585804	     -9.09570024	      0.38278694	      4.91330953	    -14.26279746	   -184.57015494	    -11.24585804	      5.51378975	     -0.57494101	      2.78321042	     31.97858589	    198.51091000	      0.83984403	      3.66432217	     -0.62348719	     12.50493021	    -31.97858589	   -198.51091000	     -0.83984403	     -3.18884813	      0.48480330	      2.17074434	      0.00000000	      0.00000000	      0.00000000	      0.00000000	      0.00000000	      0.00000000	      0.00000000	      0.00000000	      0.00000000	      0.00000000	      0.00000000	      0.00000000	      0.00000000	      0.00000000	      0.00000000	      0.00000000	      0.00000000	      0.00000000	      0.00000000	      0.00000000	      0.00000000	      0.00000000	      0.00000000	      0.00000000	    -78.63035211	   -641.74140908	     20.76669232	    -10.88314870	      1.49886773	      5.50921463	     78.63035211	    641.74140908	    -20.76669232	     21.44942835	     -1.56621611	     32.41738585	     37.25001083	   -281.61640221	    -66.64354983	      9.88873444	      0.13889917	      4.97227876	    -37.25001083	    281.61640221	     66.64354983	    -34.38181544	     -0.78784726	    -15.92027159
      0.09020901	      0.01296707	     23.69103564	      3.45082429	      0.00000000	     13.90119499	      0.00000000	      0.00000000	      0.00000000	      0.00000000	      0.00000000	      0.00000001	      0.00000000	      0.03321942	      0.02543958	      0.02746360	      0.02508641	      0.06222906	      0.05334467	      0.01525851	      0.01651186	      0.06550154	      0.04489616	      0.00648137	     -0.04213771	      0.00521684	     -0.04889288	     -0.03822350	     -0.07168371	      0.00000079	     -0.32847694	      0.00000060	     -0.00000086	      2.76307435	     50.99597937	     -9.56042239	      5.21997485	     -0.02578839	      1.48581788	     -2.76307435	    -50.99597937	      9.56042239	     -1.74637766	      0.02558040	     -0.48301696	     -3.31599387	     20.97615968	     -3.40468921	      0.94473225	     -0.02138609	     -1.00501789	      3.31599387	    -20.97615968	      3.40468921	      0.28075727	      0.00368718	     -0.29758878	     10.34569899	    192.02265882	     11.57836423	     -9.41027447	      0.29766803	      3.20999514	    -10.34569899	   -192.02265882	    -11.57836423	      5.72670615	     -0.48018812	      3.10843470	     27.76604080	    208.33798137	      1.60840625	      3.52406294	     -0.52929055	     10.66745488	    -27.76604080	   -208.33798137	     -1.60840625	     -3.30806978	      0.39846922	      2.54921625	      0.00000000	      0.00000000	      0.00000000	      0.00000000	      0.00000000	      0.00000000	      0.00000000	      0.00000000	      0.00000000	      0.00000000	      0.00000000	      0.00000000	      0.00000000	      0.00000000	      0.00000000	      0.00000000	      0.00000000	      0.00000000	      0.00000000	      0.00000000	      0.00000000	      0.00000000	      0.00000000	      0.00000000	    -67.07498585	   -653.79931487	     20.31912334	    -11.06348457	      1.31760795	      6.33020159	     67.07498585	    653.79931487	    -20.31912334	     21.49668122	     -1.33871213	     27.43152154	     42.42354401	   -279.85856573	    -64.08820898	      9.73764401	      0.28380303	      5.23436891	    -42.42354401	    279.85856573	     64.08820898	    -33.26339063	     -0.89475558	    -18.13947667
